HIERARCHY
ROOT RootJoint
{
    OFFSET   0.000000   0.000000   0.000000
    CHANNELS 6 Xposition Yposition Zposition Xrotation Yrotation Zrotation
    JOINT pelvis_lowerback
    {
        OFFSET   0.000000   0.093605   0.000000
        CHANNELS 3 Xrotation Yrotation Zrotation
        JOINT lowerback_torso
        {
            OFFSET   0.000000   0.100000   0.000000
            CHANNELS 3 Xrotation Yrotation Zrotation
            JOINT torso_head
            {
                OFFSET   0.000000   0.282350   0.000000
                CHANNELS 3 Xrotation Yrotation Zrotation
                End Site
                {
                    OFFSET   0.000000   0.192650   0.000000
                }
            }
            JOINT rTorso_Clavicle
            {
                OFFSET  -0.001000   0.157500   0.000000
                CHANNELS 3 Xrotation Yrotation Zrotation
                JOINT rShoulder
                {
                    OFFSET  -0.117647   0.000000   0.000000
                    CHANNELS 3 Xrotation Yrotation Zrotation
                    JOINT rElbow
                    {
                        OFFSET  -0.245000   0.000000   0.000000
                        CHANNELS 3 Xrotation Yrotation Zrotation
                        JOINT rWrist
                        {
                            OFFSET  -0.240000   0.000000   0.000000
                            CHANNELS 3 Xrotation Yrotation Zrotation
                            End Site
                            {
                                OFFSET  -0.116353  -0.002500   0.000000
                            }
                        }
                    }
                }
            }
            JOINT lTorso_Clavicle
            {
                OFFSET   0.001000   0.157500   0.000000
                CHANNELS 3 Xrotation Yrotation Zrotation
                JOINT lShoulder
                {
                    OFFSET   0.117647   0.000000   0.000000
                    CHANNELS 3 Xrotation Yrotation Zrotation
                    JOINT lElbow
                    {
                        OFFSET   0.245000   0.000000   0.000000
                        CHANNELS 3 Xrotation Yrotation Zrotation
                        JOINT lWrist
                        {
                            OFFSET   0.240000   0.000000   0.000000
                            CHANNELS 3 Xrotation Yrotation Zrotation
                            End Site
                            {
                                OFFSET   0.116353  -0.002500   0.000000
                            }
                        }
                    }
                }
            }
        }
    }
    JOINT rHip
    {
        OFFSET  -0.100000  -0.051395   0.000000
        CHANNELS 3 Xrotation Yrotation Zrotation
        JOINT rKnee
        {
            OFFSET   0.000000  -0.410000   0.000000
            CHANNELS 3 Xrotation Yrotation Zrotation
            JOINT rAnkle
            {
                OFFSET   0.000000  -0.390000   0.000000
                CHANNELS 3 Xrotation Yrotation Zrotation
                JOINT rToeJoint
                {
                    OFFSET   0.000000  -0.050000   0.130000
                    CHANNELS 3 Xrotation Yrotation Zrotation
                    End Site
                    {
                        OFFSET  -0.010000   0.002000   0.060000
                    }
                }
            }
        }
    }
    JOINT lHip
    {
        OFFSET   0.100000  -0.051395   0.000000
        CHANNELS 3 Xrotation Yrotation Zrotation
        JOINT lKnee
        {
            OFFSET   0.000000  -0.410000   0.000000
            CHANNELS 3 Xrotation Yrotation Zrotation
            JOINT lAnkle
            {
                OFFSET   0.000000  -0.390000   0.000000
                CHANNELS 3 Xrotation Yrotation Zrotation
                JOINT lToeJoint
                {
                    OFFSET   0.000000  -0.050000   0.130000
                    CHANNELS 3 Xrotation Yrotation Zrotation
                    End Site
                    {
                        OFFSET   0.010000   0.002000   0.060000
                    }
                }
            }
        }
    }
}
MOTION
Frames: 8
Frame Time:   0.008333
 -2.376719   0.925631   3.975860   0.000000   0.000000   0.000000   0.000000   0.000000   0.000000   0.000000   0.000000   0.000000   0.000000   0.000000   0.000000   0.000000   0.000000   0.000000   0.000000   0.000000   0.000000   0.000000   0.000000   0.000000   0.000000   0.000000   0.000000   0.000000   0.000000   0.000000   0.000000   0.000000   0.000000   0.000000   0.000000   0.000000   0.000000   0.000000   0.000000   0.000000   0.000000   0.000000   0.000000   0.000000   0.000000   0.000000   0.000000   0.000000   0.000000   0.000000   0.000000   0.000000   0.000000   0.000000   0.000000   0.000000   0.000000   0.000000   0.000000   0.000000   0.000000   0.000000   0.000000
 -2.376743   0.925384   3.974593  -1.203512   0.516327  -0.183498   1.613080  -0.022551   0.109094   0.027953  -0.155766   0.213323   0.019973  -0.117224   0.000376  -0.429983  -0.410273  -0.378503  -1.398391  -0.289950   1.642222   0.041590   3.525615   0.041682   0.036390  -1.771499  -1.663408  -0.561590   0.007435   0.293608  -0.285423  -0.733239  -1.880050   0.042412  -3.361280  -0.010472   0.033163   2.264378   1.496490   0.359581  -0.847537   0.019211   2.339151   0.003229  -0.006877  -1.384250  -0.238890   0.224106  -0.186785   0.000088   0.000930   0.316387   0.282709   0.403760   3.090079  -0.005112   0.021708  -2.771771   0.389937   0.206690   0.180286  -0.000682   0.001866
 -2.376731   0.924961   3.973022  -2.606082   1.214438  -0.375388   3.220586  -0.117978   0.251284   0.251376  -0.428652   0.466584   0.112573  -0.218188   0.021880  -0.840926  -0.616605  -0.339598  -2.720940  -0.400126   3.495762   0.093129   7.203916   0.073838   0.029004  -2.508770  -2.814382  -1.088529  -0.350199   0.157182  -0.601491  -1.759470  -3.981807   0.097153  -6.930221  -0.017832   0.049375   3.304092   2.435175   0.712580  -1.683131  -0.118440   4.849516   0.009395  -0.009310  -2.660669  -0.477136   0.422968  -0.361353  -0.000139   0.001336   0.830736   0.601621   1.014531   6.522488  -0.011781   0.048995  -5.351881   0.762419   0.418647   0.287257  -0.001105   0.002790
 -2.376650   0.924116   3.971263  -4.001788   1.974208  -0.538390   4.729967  -0.273167   0.404571   0.498165  -0.767032   0.725158   0.199073  -0.309989   0.048853  -1.222311  -0.649642  -0.009389  -3.959517  -0.414439   5.445931   0.144028  10.939546   0.098844   0.026985  -2.783235  -3.458832  -1.580051  -0.937121  -0.260701  -0.949155  -2.907001  -6.165045   0.152687 -10.582838  -0.023740   0.073813   3.705905   2.879094   0.942085  -2.469346  -0.419686   7.219609   0.016739  -0.009787  -3.847480  -0.705771   0.600960  -0.510724  -0.000496   0.001444   1.462569   0.923988   1.764939   9.839347  -0.017321   0.073005  -7.753195   1.106239   0.634136   0.408715  -0.001647   0.003755
 -2.376486   0.922682   3.969377  -5.343573   2.738473  -0.666896   6.145050  -0.469730   0.562118   0.734635  -1.142660   0.979086   0.265221  -0.395223   0.075918  -1.576709  -0.568681   0.508098  -5.116935  -0.383739   7.425215   0.188775  14.708175   0.117973   0.028740  -2.824781  -3.725993  -2.041122  -1.656878  -0.854948  -1.326437  -4.097121  -8.359870   0.203313 -14.285026  -0.027741   0.103835   3.759413   2.970052   1.029280  -3.205679  -0.863803   9.403075   0.023915  -0.010099  -4.955444  -0.924574   0.760685  -0.651662  -0.000911   0.001459   2.168676   1.242411   2.616859  12.979656  -0.021263   0.091792  -9.994247   1.421163   0.851324   0.520867  -0.002108   0.004396
 -2.376230   0.920540   3.967417  -6.620377   3.475949  -0.763860   7.477387  -0.693671   0.721680   0.961823  -1.538809   1.225337   0.313341  -0.474777   0.101550  -1.905927  -0.417631   1.137213  -6.195854  -0.338689   9.385162   0.224657  18.496236   0.132185   0.031280  -2.741862  -3.731240  -2.475561  -2.448063  -1.552587  -1.728606  -5.284631 -10.520915   0.246436 -18.018582  -0.029302   0.135437   3.610870   2.823507   0.982413  -3.891378  -1.425306  11.402526   0.030091  -0.010853  -5.990674  -1.133409   0.904295  -0.786467  -0.001328   0.001450   2.926452   1.554249   3.541900  15.942258  -0.023731   0.105283 -12.086795   1.708432   1.068370   0.620909  -0.002447   0.004717
 -2.375880   0.917607   3.965430  -7.828855   4.170240  -0.834312   8.736440  -0.935251   0.882365   1.184534  -1.944690   1.463081   0.348125  -0.549215   0.125401  -2.211888  -0.224633   1.823560  -7.199721  -0.294742  11.291966   0.250318  22.273048   0.142278   0.033459  -2.583807  -3.563501  -2.886908  -3.272315  -2.301937  -2.150365  -6.443605 -12.618245   0.281357 -21.773021  -0.028238   0.165914   3.341545   2.525644   0.815811  -4.525663  -2.079126  13.229872   0.034842  -0.012074  -6.958100  -1.332130   1.033636  -0.914732  -0.001706   0.001439   3.720016   1.858504   4.516130  18.734913  -0.024981   0.114014 -14.040812   1.969681   1.283553   0.710069  -0.002669   0.004793
 -2.375348   0.913605   3.962617  -8.349113   4.627486  -0.923381   9.595799  -1.045567   1.057848   1.032853  -2.254019   1.686133   0.279669  -0.738946   0.136652  -2.471990  -0.150469   2.353025  -8.372584  -0.253930  13.038052   0.254660  26.064824   0.161083   0.020037  -2.494552  -3.008275  -3.012377  -3.997756  -2.731102  -2.594992  -7.686815 -14.888600   0.308336 -25.559029  -0.017431   0.178490   2.984347   2.014071  -0.555030  -5.397745  -2.902319  15.881136   0.042043  -0.027121  -7.628662  -1.679819   1.309818  -0.980220  -0.001637   0.001682   3.978177   2.223523   5.472336  20.572498  -0.024099   0.108591 -15.572594   2.260037   1.380191   1.082375  -0.004678   0.007708
